<?xml version="1.0" standalone="no"?>
<!DOCTYPE svg PUBLIC "-//W3C//DTD SVG 20010904//EN"
 "http://www.w3.org/TR/2001/REC-SVG-20010904/DTD/svg10.dtd">
<svg version="1.0" xmlns="http://www.w3.org/2000/svg"
 width="500.000000pt" height="400.000000pt" viewBox="0 0 500.000000 400.000000"
 preserveAspectRatio="xMidYMid meet">

<g transform="translate(0.000000,400.000000) scale(0.100000,-0.100000)"
fill="#000000" stroke="none">
<path d="M2301 3571 c-51 -7 -58 -11 -119 -76 -36 -39 -87 -97 -115 -130 -27
-33 -76 -89 -108 -125 -74 -85 -212 -242 -319 -365 -47 -54 -89 -103 -95 -109
-5 -6 -35 -40 -65 -76 -30 -36 -57 -67 -61 -70 -5 -5 -59 -65 -234 -265 -44
-50 -102 -118 -130 -151 -27 -32 -75 -86 -106 -119 -31 -33 -124 -139 -207
-235 -82 -96 -165 -192 -184 -212 -18 -20 -51 -58 -73 -84 -22 -26 -52 -61
-67 -78 -65 -75 -78 -92 -78 -101 0 -16 110 -135 124 -135 7 0 53 44 101 98
49 53 96 104 105 113 8 9 28 31 44 50 70 82 181 205 197 219 9 8 52 56 95 105
42 50 103 116 133 149 68 72 62 65 141 156 35 41 96 109 135 150 38 41 86 95
107 119 20 23 60 68 90 99 29 32 87 95 128 142 41 47 77 87 80 90 4 3 46 50
95 105 50 55 97 107 105 116 8 8 47 51 86 95 140 156 179 200 214 239 21 22
82 90 136 150 54 61 105 114 112 118 29 19 -5 27 -106 26 -59 -1 -131 -5 -161
-8z"/>
<path d="M2921 3487 c-24 -29 -83 -95 -131 -147 -48 -52 -104 -115 -126 -140
-21 -25 -62 -70 -90 -100 -61 -65 -79 -85 -164 -181 -36 -41 -78 -88 -95 -105
-16 -17 -57 -62 -90 -100 -33 -37 -87 -97 -120 -134 -122 -133 -222 -244 -464
-516 -69 -76 -129 -143 -135 -149 -6 -5 -74 -80 -150 -165 -77 -85 -196 -218
-265 -295 -69 -77 -169 -187 -221 -245 -52 -58 -109 -121 -127 -140 -18 -19
-33 -40 -33 -47 0 -32 378 -236 570 -306 392 -145 927 -231 1330 -213 749 31
1380 245 1820 614 400 336 564 791 433 1206 -100 319 -344 609 -690 820 -287
174 -654 309 -1022 376 -169 30 -177 29 -230 -33z m-13 -1086 c8 -4 33 -73 56
-152 23 -79 47 -143 52 -142 5 1 13 18 17 37 5 20 13 36 18 36 18 0 9 -146
-16 -250 -14 -58 -38 -161 -54 -229 -49 -206 -56 -200 -136 119 -7 30 -30 114
-50 185 -20 72 -45 166 -57 210 -16 65 -26 86 -54 110 -38 33 -43 59 -16 74
21 12 221 14 240 2z m446 3 c22 -9 20 -36 -6 -69 -22 -28 -22 -33 -22 -362 0
-332 0 -333 22 -349 13 -9 22 -26 22 -40 l0 -24 -162 2 -163 3 0 25 c0 16 8
28 22 35 12 5 24 18 27 30 3 11 6 178 6 372 0 193 3 358 6 367 5 13 25 16 119
16 62 0 120 -3 129 -6z m363 -6 c5 -7 24 -65 42 -128 50 -182 63 -204 76 -132
3 20 10 44 15 52 13 20 13 -166 1 -206 -5 -16 -30 -118 -56 -226 -41 -170 -50
-198 -66 -198 -11 0 -19 6 -19 13 0 13 -17 76 -137 517 -51 189 -58 207 -89
235 -36 31 -42 53 -22 73 17 17 242 17 255 0z m437 6 c23 -9 20 -51 -4 -66
-19 -12 -20 -24 -20 -358 0 -334 1 -346 20 -358 11 -7 20 -23 20 -37 l0 -25
-160 0 -160 0 0 30 c0 20 6 33 18 37 9 4 20 11 24 17 4 6 8 178 8 382 0 204 3
374 7 377 8 9 226 9 247 1z m-1609 -36 c3 -13 4 -205 3 -428 l-3 -405 -125 0
-125 0 3 33 c4 40 -8 41 -36 2 -13 -16 -39 -34 -60 -41 -33 -10 -44 -8 -79 9
-49 25 -68 65 -59 122 3 22 4 40 2 40 -3 0 -25 -28 -50 -62 -78 -110 -69 -106
-239 -109 -81 -1 -150 1 -153 4 -7 6 23 48 104 147 30 36 59 72 66 80 17 22
241 303 305 384 31 38 80 99 108 135 98 123 76 111 212 111 117 0 121 -1 126
-22z m215 -374 c15 -50 20 -100 20 -181 0 -123 5 -144 44 -187 47 -49 34 -61
-72 -64 -91 -3 -92 -3 -92 21 0 14 7 31 17 38 36 30 43 73 43 257 0 158 4 201
17 188 2 -2 12 -34 23 -72z m800 7 c15 -52 20 -97 20 -187 0 -125 10 -163 50
-191 11 -8 20 -25 20 -38 0 -23 -3 -24 -87 -27 -61 -2 -90 1 -99 10 -14 13 -9
41 11 57 42 35 46 58 48 254 1 105 5 191 9 191 4 0 16 -31 28 -69z m-1818
-688 c22 -20 23 -42 2 -71 -24 -35 -47 -29 -41 11 3 17 2 41 -3 52 -6 13 -9
-9 -9 -67 l-1 -88 -30 0 -30 0 0 96 0 97 47 -7 c25 -3 55 -14 65 -23z m94 -53
c1 -41 5 -83 9 -92 6 -16 1 -18 -35 -18 -34 0 -41 3 -36 16 3 9 6 52 6 95 l0
80 28 -3 c27 -3 27 -4 28 -78z m65 43 c6 -16 5 -31 -2 -44 -6 -13 -7 -25 -1
-32 17 -22 24 -70 11 -77 -24 -15 -49 1 -51 34 -4 68 -4 141 -1 148 7 14 35
-5 44 -29z m124 27 c27 -10 58 -67 53 -98 -2 -12 3 -16 16 -14 10 2 23 -2 27
-10 5 -8 9 16 9 60 l0 72 31 0 31 0 -3 -83 c-2 -46 -9 -91 -16 -99 -18 -21
-84 -11 -90 13 -7 24 -11 24 -31 0 -16 -19 -36 -25 -74 -22 -49 3 -61 120 -17
167 25 27 28 28 64 14z m251 -15 c3 -14 4 -34 1 -45 -4 -16 -2 -18 13 -10 22
12 30 4 30 -31 0 -15 4 -30 9 -33 5 -4 8 -14 7 -24 -2 -13 -14 -18 -57 -20
l-54 -3 -1 96 c-1 93 -1 95 22 95 17 0 25 -7 30 -25z m54 1 c0 -32 -17 -42
-25 -16 -3 11 -11 20 -16 20 -5 0 -9 5 -9 10 0 6 11 10 25 10 20 0 25 -5 25
-24z m288 -5 c2 -13 -1 -28 -7 -34 -8 -8 -11 -6 -11 6 0 9 -5 17 -11 17 -8 0
-10 -24 -7 -75 l3 -75 -38 0 c-28 0 -36 3 -31 12 10 15 14 115 6 143 -5 19 -5
19 -13 -3 -14 -36 -38 -39 -64 -6 -13 16 -27 26 -31 21 -18 -18 -12 -157 7
-157 4 0 17 10 29 22 14 15 20 17 20 7 0 -29 -17 -40 -56 -37 -33 3 -41 8 -56
38 -13 27 -15 44 -8 75 14 63 30 70 156 70 107 0 109 0 112 -24z m166 23 c18
-7 22 -49 6 -59 -6 -4 -4 -17 5 -35 11 -21 12 -36 6 -54 -13 -32 -34 -43 -76
-38 l-34 4 0 67 c1 84 6 100 32 111 27 11 41 12 61 4z m95 -79 c-2 -81 3 -106
17 -92 4 3 6 45 5 92 l-2 86 25 -16 c39 -26 48 -122 15 -162 -16 -18 -83 -17
-99 2 -7 9 -15 38 -18 65 -3 39 0 55 17 79 13 17 27 31 32 31 6 0 9 -35 8 -85z
m162 81 c2 -3 2 -38 -2 -78 -6 -77 3 -105 25 -75 18 24 26 21 26 -8 0 -24 -3
-25 -55 -25 l-55 0 0 95 0 95 28 0 c16 0 31 -2 33 -4z m122 -70 c-7 -93 -2
-111 28 -95 20 10 21 17 16 90 -5 72 -3 79 13 79 16 0 18 -6 13 -57 -9 -107
-19 -130 -56 -136 -51 -8 -65 14 -69 111 l-3 82 32 0 31 0 -5 -74z m222 53
c10 -32 -12 -48 -24 -18 -7 18 -10 3 -10 -63 l-1 -88 -30 0 -30 0 0 75 c0 43
-4 75 -10 75 -5 0 -10 -7 -10 -16 0 -8 -4 -12 -10 -9 -11 7 -14 48 -3 58 3 4
32 7 64 7 50 0 59 -3 64 -21z m81 -74 l-1 -95 -34 0 c-26 0 -32 3 -27 16 3 9
6 51 6 95 l0 79 29 0 28 0 -1 -95z m134 77 c16 -13 24 -32 27 -69 6 -63 -14
-99 -59 -105 -69 -11 -104 85 -58 160 23 37 55 42 90 14z m130 -24 l19 -43 0
43 c1 32 5 42 17 42 13 0 15 -7 10 -31 -3 -17 -6 -60 -6 -95 0 -55 -2 -64 -18
-64 -12 0 -26 17 -42 50 -13 27 -27 47 -33 43 -9 -6 -6 -45 8 -75 5 -14 2 -18
-11 -18 -17 0 -19 9 -19 95 l0 95 28 0 c23 0 31 -7 47 -42z"/>
<path d="M2267 1958 c-3 -7 -44 -62 -91 -122 -85 -107 -100 -134 -54 -102 46
33 122 6 153 -54 8 -16 17 -30 18 -30 3 0 0 256 -2 308 -1 6 -5 12 -10 12 -5
0 -11 -6 -14 -12z"/>
<path d="M1997 1313 c-9 -14 -11 -128 -3 -142 15 -24 26 2 26 62 0 60 -12 99
-23 80z"/>
<path d="M2280 1197 c0 -28 3 -35 15 -31 8 4 15 14 15 24 0 10 -7 23 -15 30
-13 11 -15 7 -15 -23z"/>
<path d="M2734 1316 c-7 -19 12 -46 32 -46 20 0 17 24 -6 45 -18 16 -20 16
-26 1z"/>
<path d="M2715 1190 c17 -33 32 -38 42 -15 6 17 -22 44 -45 45 -9 0 -9 -7 3
-30z"/>
<path d="M3549 1308 c-7 -64 -4 -130 8 -139 11 -9 13 4 13 70 0 47 -4 81 -10
81 -5 0 -11 -6 -11 -12z"/>
<path d="M1725 3494 c-33 -8 -108 -28 -167 -46 -91 -26 -113 -36 -142 -67 -32
-33 -191 -219 -461 -537 -60 -71 -112 -131 -115 -134 -3 -3 -52 -61 -110 -130
-57 -69 -121 -143 -142 -165 -20 -22 -50 -56 -65 -76 -15 -20 -55 -68 -88
-106 -33 -38 -76 -89 -96 -114 -21 -24 -48 -56 -60 -70 -13 -14 -42 -47 -64
-74 -22 -26 -45 -53 -51 -59 -43 -45 -45 -58 -23 -141 23 -91 45 -145 56 -144
4 0 49 48 100 107 51 59 103 118 115 132 13 14 50 57 82 95 33 39 83 95 110
125 28 30 65 72 83 94 36 43 73 85 293 336 85 97 191 219 235 270 44 51 87
101 95 109 8 9 28 32 44 51 15 19 64 73 107 120 43 47 90 102 106 121 23 28
137 160 257 297 l19 22 -29 -1 c-16 -1 -56 -8 -89 -15z"/>
<path d="M894 3175 c-386 -231 -634 -510 -738 -830 -29 -89 -42 -155 -31 -155
4 0 17 12 29 27 11 15 79 96 151 179 72 83 148 173 170 200 75 91 158 189 169
199 15 13 171 197 225 265 25 30 55 65 67 77 34 34 77 93 72 98 -3 3 -54 -24
-114 -60z"/>
</g>
</svg>
